<svg width="1000" height="1000" viewBox="0 0 1000 1000" fill="none" xmlns="http://www.w3.org/2000/svg">
<path d="M626.777 170.19C627.528 169.429 628.553 169 629.623 169H727.723C728.225 169 728.682 169.038 729.174 169.141C742.208 171.856 934 215.244 934 417.25C934 619.26 742.201 662.906 729.173 665.638C728.682 665.741 728.226 665.78 727.724 665.781L548.086 666.052C544.872 666.056 541.794 667.351 539.542 669.644L382.219 829.882L140.954 831L472.221 500.503C472.97 499.756 473.985 499.335 475.043 499.334L828.377 499.004C828.377 499.004 889.779 486.462 889.779 418.868C889.779 351.274 820.628 334.081 820.628 334.081L467.639 335.889C466.583 335.895 465.573 336.317 464.827 337.065L301.797 500.559L65 501.118L232.545 333.941L463.199 334.218C464.271 334.22 465.298 333.791 466.051 333.028L626.777 170.19Z" fill="white"/>
</svg>
