<svg width="1000" height="1000" viewBox="0 0 1000 1000" fill="none" xmlns="http://www.w3.org/2000/svg">
<g opacity="0.5">
<path d="M626.776 170.19C627.528 169.429 628.553 169 629.623 169H727.723C728.225 169 728.682 169.038 729.174 169.141C742.208 171.856 934 215.244 934 417.25C934 619.26 742.201 662.906 729.173 665.638C728.682 665.741 728.226 665.78 727.724 665.781L548.086 666.052C544.872 666.056 541.794 667.351 539.542 669.644L382.219 829.882L140.954 831L472.221 500.503C472.97 499.756 473.985 499.335 475.043 499.335L828.377 499.004C828.377 499.004 889.779 486.462 889.779 418.868C889.779 351.274 820.628 334.081 820.628 334.081L467.639 335.889C466.583 335.895 465.573 336.317 464.827 337.065L301.797 500.559L65 501.118L232.545 333.941L463.199 334.218C464.271 334.22 465.298 333.791 466.051 333.028L626.776 170.19Z" fill="url(#paint0_linear_2006_34)"/>
<path d="M727.724 168C728.281 168 728.808 168.043 729.378 168.162C735.956 169.533 787.323 181.096 837.066 217.655C886.848 254.243 935 315.869 935 417.25C935 518.632 886.847 580.324 837.064 616.979C787.321 653.605 735.955 665.238 729.379 666.617H729.378C728.809 666.736 728.283 666.779 727.726 666.78L548.088 667.052C545.141 667.056 542.319 668.242 540.255 670.345L382.932 830.582L382.64 830.88L382.223 830.882L140.958 832L138.524 832.012L140.247 830.292L471.516 499.795C472.452 498.861 473.72 498.336 475.042 498.335L828.271 498.004C828.29 498 828.312 497.996 828.336 497.99C828.446 497.966 828.613 497.928 828.832 497.875C829.27 497.77 829.917 497.605 830.743 497.371C832.396 496.904 834.764 496.159 837.609 495.056C843.303 492.848 850.891 489.209 858.476 483.485C873.615 472.06 888.779 452.305 888.779 418.868C888.779 385.473 871.719 364.547 854.61 351.932C846.049 345.619 837.482 341.394 831.053 338.748C827.84 337.426 825.164 336.499 823.296 335.904C822.362 335.607 821.63 335.392 821.134 335.253C820.886 335.183 820.696 335.132 820.57 335.099C820.546 335.092 820.524 335.086 820.504 335.081L467.645 336.89C466.853 336.894 466.094 337.211 465.535 337.771L302.505 501.266L302.213 501.559L301.799 501.56L65.002 502.118L62.5762 502.124L64.2939 500.41L231.839 333.233L232.132 332.94H232.546L463.2 333.219C464.004 333.22 464.774 332.898 465.339 332.326L626.064 169.487C627.004 168.536 628.286 168 629.623 168H727.724Z" stroke="#C0E1FF" stroke-opacity="0.933333" stroke-width="2"/>
</g>
<defs>
<linearGradient id="paint0_linear_2006_34" x1="499.5" y1="169" x2="499.5" y2="831" gradientUnits="userSpaceOnUse">
<stop stop-color="#1D2E40"/>
<stop offset="0.475962" stop-color="#53697F"/>
<stop offset="1" stop-color="#05070A"/>
</linearGradient>
</defs>
</svg>
